<svg width="100" height="100" viewBox="0 0 100 100" fill="none" xmlns="http://www.w3.org/2000/svg">
<path d="M49.9999 8.33331C44.5282 8.33331 39.11 9.41105 34.0548 11.505C28.9996 13.5989 24.4063 16.6681 20.5371 20.5372C12.7231 28.3512 8.33326 38.9493 8.33326 50C8.30035 59.6208 11.6313 68.9505 17.7499 76.375L9.4166 84.7083C8.83844 85.2942 8.44679 86.0383 8.29106 86.8466C8.13534 87.6549 8.22252 88.4912 8.5416 89.25C8.88767 89.9997 9.4487 90.6297 10.1535 91.0599C10.8582 91.4902 11.6749 91.7014 12.4999 91.6666H49.9999C61.0506 91.6666 71.6487 87.2768 79.4627 79.4628C87.2767 71.6487 91.6666 61.0507 91.6666 50C91.6666 38.9493 87.2767 28.3512 79.4627 20.5372C71.6487 12.7232 61.0506 8.33331 49.9999 8.33331ZM49.9999 83.3333H22.5416L26.4166 79.4583C27.1926 78.6776 27.6282 77.6216 27.6282 76.5208C27.6282 75.42 27.1926 74.364 26.4166 73.5833C20.9607 68.1335 17.5632 60.9606 16.8028 53.2866C16.0425 45.6127 17.9664 37.9125 22.2467 31.498C26.5271 25.0835 32.8991 20.3515 40.2771 18.1082C47.6551 15.8649 55.5827 16.2492 62.7092 19.1955C69.8357 22.1417 75.7201 27.4678 79.3601 34.2662C83 41.0646 84.1702 48.9147 82.6713 56.4792C81.1724 64.0436 77.097 70.8543 71.1397 75.751C65.1823 80.6476 57.7114 83.3272 49.9999 83.3333Z" fill="black"/>
</svg>
