<svg width="100" height="100" viewBox="0 0 100 100" fill="none" xmlns="http://www.w3.org/2000/svg">
<path d="M87.5002 8.33331H12.5002C11.3951 8.33331 10.3353 8.7723 9.55388 9.5537C8.77248 10.3351 8.3335 11.3949 8.3335 12.5V87.5C8.3335 88.6051 8.77248 89.6649 9.55388 90.4463C10.3353 91.2277 11.3951 91.6667 12.5002 91.6667H87.5002C88.6052 91.6667 89.665 91.2277 90.4464 90.4463C91.2279 89.6649 91.6668 88.6051 91.6668 87.5V12.5C91.6668 11.3949 91.2279 10.3351 90.4464 9.5537C89.665 8.7723 88.6052 8.33331 87.5002 8.33331ZM33.3335 83.3333H16.6668V66.6666H33.3335V83.3333ZM33.3335 58.3333H16.6668V41.6666H33.3335V58.3333ZM33.3335 33.3333H16.6668V16.6666H33.3335V33.3333ZM58.3335 83.3333H41.6668V66.6666H58.3335V83.3333ZM58.3335 58.3333H41.6668V41.6666H58.3335V58.3333ZM58.3335 33.3333H41.6668V16.6666H58.3335V33.3333ZM83.3335 83.3333H66.6668V66.6666H83.3335V83.3333ZM83.3335 58.3333H66.6668V41.6666H83.3335V58.3333ZM83.3335 33.3333H66.6668V16.6666H83.3335V33.3333Z" fill="black" fill-opacity="0.62"/>
</svg>
