<svg width="100" height="100" viewBox="0 0 100 100" fill="none" xmlns="http://www.w3.org/2000/svg">
<path d="M53.5707 16.9167L78.0124 36.9875C79.3874 38.1125 80.2082 39.8459 80.2082 41.6959V78.375C80.2082 81.7667 77.5499 84.375 74.4457 84.375H63.5415V64.5834C63.5415 61.5444 62.3343 58.6299 60.1855 56.4811C58.0366 54.3322 55.1222 53.125 52.0832 53.125H47.9165C44.8776 53.125 41.9631 54.3322 39.8143 56.4811C37.6654 58.6299 36.4582 61.5444 36.4582 64.5834V84.375H25.554C22.4499 84.375 19.7915 81.7667 19.7915 78.375V41.7C19.7915 39.8459 20.6124 38.1167 21.9874 36.9917L46.4291 16.9125C47.4319 16.0782 48.6953 15.6214 49.9999 15.6214C51.3045 15.6214 52.5678 16.0824 53.5707 16.9167ZM74.4457 90.6209C81.1541 90.6209 86.4582 85.0584 86.4582 78.3709V41.6959C86.463 39.8733 86.0638 38.0723 85.2893 36.4224C84.5148 34.7726 83.3843 33.3149 81.979 32.1542L57.5416 12.0834C55.4206 10.3309 52.7553 9.37219 50.0041 9.37219C47.2528 9.37219 44.5875 10.3309 42.4666 12.0834L18.0207 32.1584C16.6155 33.319 15.4849 34.7767 14.7104 36.4266C13.9359 38.0764 13.5367 39.8774 13.5415 41.7V78.375C13.5415 85.0625 18.8457 90.625 25.554 90.625L74.4457 90.6209Z" fill="black"/>
</svg>
