<svg width="517" height="178" viewBox="0 0 517 178" fill="none" xmlns="http://www.w3.org/2000/svg">
<rect width="517" height="178" fill="#7182A8"/>
<path d="M107 124H90.6562L90.0312 118.688C90.5938 117.958 91.7708 117.25 93.5625 116.562V87.3125C91.7917 86.6875 90.6146 85.9688 90.0312 85.1562L90.6562 79.8438H104.938C109.521 79.8438 113.49 80.7083 116.844 82.4375C120.198 84.1458 122.781 86.6875 124.594 90.0625C126.427 93.4167 127.344 97.5729 127.344 102.531C127.344 107.49 126.521 111.552 124.875 114.719C123.229 117.885 120.885 120.229 117.844 121.75C114.802 123.25 111.188 124 107 124ZM105.656 86.8125H102.781V117.031H107.375C109.521 117.031 111.365 116.625 112.906 115.812C114.448 114.979 115.635 113.531 116.469 111.469C117.323 109.406 117.75 106.521 117.75 102.812C117.75 92.1458 113.719 86.8125 105.656 86.8125ZM146.156 124.5C141.031 124.5 137.177 123.135 134.594 120.406C132.01 117.677 130.719 113.708 130.719 108.5C130.719 105.354 131.167 102.646 132.062 100.375C132.958 98.0833 134.177 96.3125 135.719 95.0625C138.698 92.6875 142.177 91.5 146.156 91.5C148.802 91.5 151.031 91.9375 152.844 92.8125C154.677 93.6667 156.062 95.1146 157 97.1562C157.958 99.1771 158.438 101.938 158.438 105.438C158.438 108.521 156.917 110.062 153.875 110.062H140C140.167 112.75 140.854 114.646 142.062 115.75C143.292 116.854 145.229 117.406 147.875 117.406C149.312 117.406 150.688 117.24 152 116.906C153.333 116.552 154.302 116.208 154.906 115.875L155.812 115.375L157.719 120.469C157.49 120.74 157.125 121.115 156.625 121.594C156.292 121.906 155.615 122.292 154.594 122.75C153.573 123.208 152.323 123.615 150.844 123.969C149.385 124.323 147.823 124.5 146.156 124.5ZM140.062 104.75L150.188 104.344C150.271 103.823 150.312 103.104 150.312 102.188C150.312 101.333 149.969 100.427 149.281 99.4688C148.594 98.5104 147.406 98.0312 145.719 98.0312C144.031 98.0312 142.74 98.5417 141.844 99.5625C140.948 100.583 140.354 102.312 140.062 104.75ZM192.875 99.4375L182.312 124.375H175.281L164.781 99.4375C162.656 98.75 161.229 97.9167 160.5 96.9375L161.125 92H175.875L176.5 96.9375C175.917 97.625 175 98.2396 173.75 98.7812L177.219 108.438C177.594 109.458 177.917 110.469 178.188 111.469C178.479 112.448 178.708 113.427 178.875 114.406L179 115.281H179.906C180.26 113.135 180.854 110.896 181.688 108.562L185.062 99.0938C183.521 98.5104 182.417 97.7917 181.75 96.9375L182.375 92H196.469L197.094 96.9375C196.323 97.9167 194.917 98.75 192.875 99.4375ZM223.406 87.4062C222.135 86.8438 220.219 86.5625 217.656 86.5625C215.094 86.5625 213.021 87.6667 211.438 89.875C209.854 92.0833 209.062 95.9688 209.062 101.531C209.062 107.073 209.823 111.01 211.344 113.344C212.865 115.677 215.115 116.844 218.094 116.844C222.656 116.844 226.75 116.156 230.375 114.781L232.688 120.469C228.167 123.156 222.854 124.5 216.75 124.5C210.646 124.5 206.24 122.771 203.531 119.312C200.823 115.896 199.469 110.25 199.469 102.375C199.469 94.5208 201.146 88.7188 204.5 84.9688C207.854 81.1979 212.552 79.3125 218.594 79.3125C223.469 79.3125 228.104 80.6667 232.5 83.375V84.8125C232.5 85.2917 232.427 86.0312 232.281 87.0312C232.156 88.0104 231.958 89.0417 231.688 90.125C231.438 91.1875 231.125 92.0938 230.75 92.8438H224.688C224.083 91.6562 223.656 89.8438 223.406 87.4062ZM266.438 107.219C266.438 111.385 265.729 114.74 264.312 117.281C262.896 119.802 260.969 121.635 258.531 122.781C256.115 123.906 253.385 124.469 250.344 124.469C245.594 124.469 241.938 123.208 239.375 120.688C236.833 118.146 235.562 113.885 235.562 107.906C235.562 102.531 236.969 98.4583 239.781 95.6875C242.615 92.8958 246.479 91.5 251.375 91.5C256.375 91.5 260.135 92.7292 262.656 95.1875C265.177 97.6458 266.438 101.656 266.438 107.219ZM244.875 107.75C244.875 114.562 246.927 117.969 251.031 117.969C253.115 117.969 254.656 117.198 255.656 115.656C256.656 114.094 257.156 111.542 257.156 108C257.156 101.354 255.062 98.0312 250.875 98.0312C248.833 98.0312 247.323 98.7708 246.344 100.25C245.365 101.708 244.875 104.208 244.875 107.75ZM269.656 96.9375L270.281 92C272.573 91.4792 274.688 91.2188 276.625 91.2188C277.562 91.2188 278.417 91.2396 279.188 91.2812C279.979 91.3021 280.688 91.3333 281.312 91.375V94.5625C282.375 93.6667 283.792 92.9375 285.562 92.375C287.333 91.7917 289.031 91.5 290.656 91.5C293.448 91.5 295.667 91.9271 297.312 92.7812C298.958 93.6146 300.146 94.9896 300.875 96.9062C301.604 98.8229 301.969 101.385 301.969 104.594V116.906C303.635 117.531 304.812 118.25 305.5 119.062L304.844 124H290.125L289.5 119.062C290.083 118.25 291.26 117.531 293.031 116.906V104.219C293.031 101.906 292.656 100.365 291.906 99.5938C291.323 98.9688 290.479 98.5938 289.375 98.4688C288.271 98.3229 287.073 98.4167 285.781 98.75C284.49 99.0833 283.271 99.6458 282.125 100.438V116.906C283.792 117.531 284.969 118.25 285.656 119.062L285.031 124H270.281L269.656 119.062C270.24 118.25 271.417 117.531 273.188 116.906V99.0938C271.667 98.5938 270.49 97.875 269.656 96.9375ZM307.719 96.9375L308.344 92C310.635 91.4792 312.75 91.2188 314.688 91.2188C315.625 91.2188 316.479 91.2396 317.25 91.2812C318.042 91.3021 318.75 91.3333 319.375 91.375V94.5625C320.438 93.6667 321.854 92.9375 323.625 92.375C325.396 91.7917 327.094 91.5 328.719 91.5C331.51 91.5 333.729 91.9271 335.375 92.7812C337.021 93.6146 338.208 94.9896 338.938 96.9062C339.667 98.8229 340.031 101.385 340.031 104.594V116.906C341.698 117.531 342.875 118.25 343.562 119.062L342.906 124H328.188L327.562 119.062C328.146 118.25 329.323 117.531 331.094 116.906V104.219C331.094 101.906 330.719 100.365 329.969 99.5938C329.385 98.9688 328.542 98.5938 327.438 98.4688C326.333 98.3229 325.135 98.4167 323.844 98.75C322.552 99.0833 321.333 99.6458 320.188 100.438V116.906C321.854 117.531 323.031 118.25 323.719 119.062L323.094 124H308.344L307.719 119.062C308.302 118.25 309.479 117.531 311.25 116.906V99.0938C309.729 98.5938 308.552 97.875 307.719 96.9375ZM361.156 124.5C356.031 124.5 352.177 123.135 349.594 120.406C347.01 117.677 345.719 113.708 345.719 108.5C345.719 105.354 346.167 102.646 347.062 100.375C347.958 98.0833 349.177 96.3125 350.719 95.0625C353.698 92.6875 357.177 91.5 361.156 91.5C363.802 91.5 366.031 91.9375 367.844 92.8125C369.677 93.6667 371.062 95.1146 372 97.1562C372.958 99.1771 373.438 101.938 373.438 105.438C373.438 108.521 371.917 110.062 368.875 110.062H355C355.167 112.75 355.854 114.646 357.062 115.75C358.292 116.854 360.229 117.406 362.875 117.406C364.312 117.406 365.688 117.24 367 116.906C368.333 116.552 369.302 116.208 369.906 115.875L370.812 115.375L372.719 120.469C372.49 120.74 372.125 121.115 371.625 121.594C371.292 121.906 370.615 122.292 369.594 122.75C368.573 123.208 367.323 123.615 365.844 123.969C364.385 124.323 362.823 124.5 361.156 124.5ZM355.062 104.75L365.188 104.344C365.271 103.823 365.312 103.104 365.312 102.188C365.312 101.333 364.969 100.427 364.281 99.4688C363.594 98.5104 362.406 98.0312 360.719 98.0312C359.031 98.0312 357.74 98.5417 356.844 99.5625C355.948 100.583 355.354 102.312 355.062 104.75ZM391.75 98.0312C387.833 98.0312 385.875 101.396 385.875 108.125C385.875 111.542 386.417 113.927 387.5 115.281C388.583 116.615 390.156 117.281 392.219 117.281C395.406 117.281 398.26 116.979 400.781 116.375L402.719 121.312C401.344 122.208 399.5 122.969 397.188 123.594C394.896 124.198 392.656 124.5 390.469 124.5C381.26 124.5 376.656 119.167 376.656 108.5C376.656 102.25 378.26 97.7708 381.469 95.0625C384.323 92.6875 387.802 91.5 391.906 91.5C396.01 91.5 399.417 92.2604 402.125 93.7812C402.146 93.9896 402.156 94.1979 402.156 94.4062C402.177 94.6146 402.188 94.8125 402.188 95C402.188 97.4375 401.635 99.7396 400.531 101.906H394.906C394.302 100.823 393.938 99.5521 393.812 98.0938C393.542 98.0729 393.229 98.0625 392.875 98.0625C392.542 98.0417 392.167 98.0312 391.75 98.0312ZM412.5 83.9375H417.156V92H426.312V97.375H417.156V113.562C417.156 114.958 417.354 115.948 417.75 116.531C418.042 116.99 418.583 117.281 419.375 117.406C420.188 117.51 421.115 117.479 422.156 117.312C423.198 117.146 424.198 116.875 425.156 116.5L427.094 121.5C423.802 123.167 420.438 124 417 124C413.562 124 411.24 123.271 410.031 121.812C408.823 120.333 408.219 118.188 408.219 115.375V97.375H405.344L404.625 93.4688C405.312 92.6562 406.719 91.8438 408.844 91.0312C409.385 87.5104 410.604 85.1458 412.5 83.9375Z" fill="black"/>
</svg>
